<?xml version="1.0" encoding="UTF-8" standalone="no"?>
<!-- Created with Inkscape (http://www.inkscape.org/) -->

<svg
   width="100mm"
   height="100mm"
   viewBox="0 0 100 100"
   version="1.1"
   id="svg1"
   inkscape:version="1.3.2 (091e20e, 2023-11-25, custom)"
   sodipodi:docname="Joystic_Outline.svg"
   xmlns:inkscape="http://www.inkscape.org/namespaces/inkscape"
   xmlns:sodipodi="http://sodipodi.sourceforge.net/DTD/sodipodi-0.dtd"
   xmlns="http://www.w3.org/2000/svg"
   xmlns:svg="http://www.w3.org/2000/svg">
  <sodipodi:namedview
     id="namedview1"
     pagecolor="#505050"
     bordercolor="#eeeeee"
     borderopacity="1"
     inkscape:showpageshadow="0"
     inkscape:pageopacity="0"
     inkscape:pagecheckerboard="0"
     inkscape:deskcolor="#505050"
     inkscape:document-units="mm"
     inkscape:zoom="1.5233586"
     inkscape:cx="244.19726"
     inkscape:cy="127.67841"
     inkscape:window-width="1920"
     inkscape:window-height="1111"
     inkscape:window-x="-9"
     inkscape:window-y="-9"
     inkscape:window-maximized="1"
     inkscape:current-layer="layer1" />
  <defs
     id="defs1" />
  <g
     inkscape:label="Layer 1"
     inkscape:groupmode="layer"
     id="layer1">
    <path
       d="M 50.000049,0 A 50,50 0 0 0 0,50.000049 50,50 0 0 0 50.000049,100.0001 50,50 0 0 0 100.0001,50.000049 50,50 0 0 0 50.000049,0 Z m 0,5.0002116 A 45,45 0 0 1 94.999886,50.000049 45,45 0 0 1 50.000049,94.999886 45,45 0 0 1 5.0002116,50.000049 45,45 0 0 1 50.000049,5.0002116 Z"
       style="fill:#f9f9f9;stroke-width:0.264583"
       id="path3" />
  </g>
</svg>
